<svg width="800" height="800" viewBox="0 0 800 800" fill="none" xmlns="http://www.w3.org/2000/svg">
<path d="M421.049 412.267V409.895V383.806H430.833V369.575H421.049V354.159H419.271H402.075V369.575H394.071V383.806H402.075V409.302V413.453C402.075 425.608 408.598 431.538 421.346 431.538L431.129 431.241V415.825H424.311C422.235 415.528 421.049 414.046 421.049 412.267Z" fill="#236192"/>
<path d="M228.344 368.389C219.746 368.389 214.41 371.947 211.741 375.505V369.872H193.36V431.241H212.334V396.258C212.334 388.846 216.485 384.399 223.007 384.399C231.012 384.399 231.605 389.142 231.605 394.182V431.241H250.579V389.439C250.875 376.394 242.278 368.389 228.344 368.389Z" fill="#236192"/>
<path d="M151.261 369.575V431.241H170.236V369.575H169.05H151.261Z" fill="#236192"/>
<path d="M295.05 366.017C295.05 364.535 296.235 362.756 298.311 362.756H305.13V347.339L295.346 347.043C282.598 347.043 276.075 352.972 276.075 365.128V369.871H267.478V383.805H276.075V431.241H295.05V383.805H305.426V369.575H295.05V366.017Z" fill="#236192"/>
<path d="M349.007 368.389C334.183 368.389 316.988 376.691 316.988 400.705C316.988 424.719 334.183 433.02 349.007 433.02C363.831 433.02 381.026 424.719 381.026 400.705C381.026 376.691 363.831 368.389 349.007 368.389ZM349.007 416.714C338.334 416.714 336.259 408.116 336.259 400.705C336.259 393.293 338.334 384.695 349.007 384.695C359.68 384.695 361.755 393.293 361.755 400.705C361.755 408.116 359.68 416.714 349.007 416.714Z" fill="#236192"/>
<path d="M198.993 335.185C198.104 335.185 196.028 335.481 193.953 334.888C191.581 334.295 188.32 332.813 187.134 328.663C185.948 324.512 188.024 320.658 189.802 319.175C190.395 318.583 192.471 317.397 193.953 317.1C207.591 312.653 233.977 305.538 279.93 302.87C318.471 300.794 346.635 303.759 370.649 307.317C382.212 309.095 401.482 313.246 416.306 317.397C430.537 321.547 435.873 324.512 435.28 327.18C434.687 329.552 427.275 328.959 416.899 327.18C408.894 325.698 388.438 323.03 368.278 321.251C344.857 318.583 314.32 317.397 281.708 320.658C248.8 323.623 212.927 331.627 198.993 335.185Z" fill="#C04C36"/>
<path d="M148.89 340.818C148.89 347.043 154.226 352.083 160.748 352.083C167.271 352.083 172.607 347.043 172.607 340.818C172.607 334.295 167.271 328.959 160.748 328.959C154.226 329.255 148.89 334.295 148.89 340.818Z" fill="#C04C36"/>
<path d="M483.901 412.86C482.419 415.825 478.861 417.307 475.6 417.307C465.52 417.307 463.741 410.488 463.148 406.338H504.358V401.891C504.358 371.651 483.605 368.389 474.711 368.389C445.657 368.389 444.471 394.182 444.471 399.222C444.471 421.161 455.144 432.724 475.897 432.724C489.831 432.724 500.207 425.312 503.765 412.86H483.901ZM474.118 384.102C476.786 384.102 482.715 384.992 484.198 393.293H463.741C465.224 387.067 468.781 384.102 474.118 384.102Z" fill="#236192"/>
<path d="M558.019 409.302C557.723 411.674 555.647 417.01 549.125 417.01C539.934 417.01 538.748 408.413 538.748 399.519C538.748 396.257 539.341 384.399 549.421 384.399C555.351 384.102 557.426 387.956 558.019 391.217H577.29C575.511 374.022 561.873 368.093 549.421 368.093C530.151 368.093 519.181 380.248 519.181 402.187C519.181 409.302 521.257 432.723 548.532 432.723C568.988 432.723 576.4 417.9 577.586 409.006H558.019V409.302Z" fill="#236192"/>
<path d="M625.021 391.81C619.092 390.921 613.162 389.439 613.162 387.067C613.162 385.585 613.162 382.916 621.167 382.916C627.096 382.916 628.875 384.695 629.765 387.067H648.739C646.96 374.615 637.769 368.093 620.574 368.093C601.6 368.093 594.781 378.766 594.781 389.142C594.781 403.373 609.308 406.337 619.981 408.413C626.207 409.302 632.136 410.785 632.136 413.453C632.136 415.528 629.765 417.9 623.539 417.9C615.534 417.9 613.162 415.232 612.273 412.86H592.706C593.892 425.312 604.861 432.723 622.946 432.723C636.287 432.723 650.814 427.09 650.814 410.785C651.111 396.85 635.694 393.886 625.021 391.81Z" fill="#236192"/>
</svg>
